<svg width="32" height="30" viewBox="0 0 32 30" fill="none" xmlns="http://www.w3.org/2000/svg">
<path d="M28.6583 10.5433C25.7925 10.5433 24.6208 8.51659 26.0458 6.03076C26.8692 4.58993 26.3783 2.75326 24.9375 1.92993L22.1983 0.362427C20.9475 -0.38174 19.3325 0.0615939 18.5883 1.31243L18.4142 1.61326C16.9892 4.09909 14.6458 4.09909 13.205 1.61326L13.0308 1.31243C12.3183 0.0615939 10.7033 -0.38174 9.4525 0.362427L6.71333 1.92993C5.2725 2.75326 4.78167 4.60576 5.605 6.04659C7.04583 8.51659 5.87417 10.5433 3.00833 10.5433C1.36167 10.5433 0 11.8891 0 13.5516V16.3383C0 17.9849 1.34583 19.3466 3.00833 19.3466C5.87417 19.3466 7.04583 21.3733 5.605 23.8591C4.78167 25.2999 5.2725 27.1366 6.71333 27.9599L9.4525 29.5274C10.7033 30.2716 12.3183 29.8283 13.0625 28.5774L13.2367 28.2766C14.6617 25.7908 17.005 25.7908 18.4458 28.2766L18.62 28.5774C19.3642 29.8283 20.9792 30.2716 22.23 29.5274L24.9692 27.9599C26.41 27.1366 26.9008 25.2841 26.0775 23.8591C24.6367 21.3733 25.8083 19.3466 28.6742 19.3466C30.3208 19.3466 31.6825 18.0008 31.6825 16.3383V13.5516C31.6667 11.9049 30.3208 10.5433 28.6583 10.5433ZM15.8333 20.0908C12.9992 20.0908 10.6875 17.7791 10.6875 14.9449C10.6875 12.1108 12.9992 9.79909 15.8333 9.79909C18.6675 9.79909 20.9792 12.1108 20.9792 14.9449C20.9792 17.7791 18.6675 20.0908 15.8333 20.0908Z" fill="black"/>
</svg>
